<svg width="27" height="27" viewBox="0 0 27 27" fill="none" xmlns="http://www.w3.org/2000/svg">
<path d="M21.375 3.375H5.625C4.38236 3.375 3.375 4.38236 3.375 5.625V21.375C3.375 22.6176 4.38236 23.625 5.625 23.625H21.375C22.6176 23.625 23.625 22.6176 23.625 21.375V5.625C23.625 4.38236 22.6176 3.375 21.375 3.375Z" stroke="#95685A" stroke-width="2" stroke-linecap="round" stroke-linejoin="round"/>
<path d="M9.5625 11.25C10.4945 11.25 11.25 10.4945 11.25 9.5625C11.25 8.63052 10.4945 7.875 9.5625 7.875C8.63052 7.875 7.875 8.63052 7.875 9.5625C7.875 10.4945 8.63052 11.25 9.5625 11.25Z" stroke="#95685A" stroke-width="2" stroke-linecap="round" stroke-linejoin="round"/>
<path d="M23.625 16.875L18 11.25L5.625 23.625" stroke="#95685A" stroke-width="2" stroke-linecap="round" stroke-linejoin="round"/>
</svg>
