<svg width="103" height="39" viewBox="0 0 103 39" fill="none" xmlns="http://www.w3.org/2000/svg">
<path d="M10.672 4.41007C11.248 5.46607 11.904 6.77807 12.64 8.34607C13.408 9.88207 14.192 11.5621 14.992 13.3861C15.824 15.1781 16.64 17.0181 17.44 18.9061C18.24 20.7941 18.992 22.5701 19.696 24.2341C20.4 22.5701 21.152 20.7941 21.952 18.9061C22.752 17.0181 23.552 15.1781 24.352 13.3861C25.184 11.5621 25.968 9.88207 26.704 8.34607C27.472 6.77807 28.144 5.46607 28.72 4.41007H35.536C35.856 6.61807 36.144 9.09807 36.4 11.8501C36.688 14.5701 36.928 17.4181 37.12 20.3941C37.344 23.3381 37.536 26.2981 37.696 29.2741C37.888 32.2501 38.048 35.0501 38.176 37.6741H30.88C30.784 34.4421 30.656 30.9221 30.496 27.1141C30.336 23.3061 30.096 19.4661 29.776 15.5941C29.2 16.9381 28.56 18.4261 27.856 20.0581C27.152 21.6901 26.448 23.3221 25.744 24.9541C25.072 26.5861 24.416 28.1541 23.776 29.6581C23.136 31.1301 22.592 32.3941 22.144 33.4501H16.912C16.464 32.3941 15.92 31.1301 15.28 29.6581C14.64 28.1541 13.968 26.5861 13.264 24.9541C12.592 23.3221 11.904 21.6901 11.2 20.0581C10.496 18.4261 9.856 16.9381 9.28 15.5941C8.96 19.4661 8.72 23.3061 8.56 27.1141C8.4 30.9221 8.272 34.4421 8.176 37.6741H0.88C1.008 35.0501 1.152 32.2501 1.312 29.2741C1.504 26.2981 1.696 23.3381 1.888 20.3941C2.112 17.4181 2.352 14.5701 2.608 11.8501C2.896 9.09807 3.2 6.61807 3.52 4.41007H10.672ZM68.0541 25.0021C68.0541 26.9861 67.7661 28.8101 67.1901 30.4741C66.6141 32.1061 65.7821 33.5141 64.6941 34.6981C63.6061 35.8501 62.2941 36.7461 60.7581 37.3861C59.2541 38.0261 57.5581 38.3461 55.6701 38.3461C53.8141 38.3461 52.1181 38.0261 50.5821 37.3861C49.0781 36.7461 47.7821 35.8501 46.6941 34.6981C45.6061 33.5141 44.7581 32.1061 44.1501 30.4741C43.5421 28.8101 43.2381 26.9861 43.2381 25.0021C43.2381 23.0181 43.5421 21.2101 44.1501 19.5781C44.7901 17.9461 45.6541 16.5541 46.7421 15.4021C47.8621 14.2501 49.1741 13.3541 50.6781 12.7141C52.2141 12.0741 53.8781 11.7541 55.6701 11.7541C57.4941 11.7541 59.1581 12.0741 60.6621 12.7141C62.1981 13.3541 63.5101 14.2501 64.5981 15.4021C65.6861 16.5541 66.5341 17.9461 67.1421 19.5781C67.7501 21.2101 68.0541 23.0181 68.0541 25.0021ZM60.7581 25.0021C60.7581 22.7941 60.3101 21.0661 59.4141 19.8181C58.5501 18.5381 57.3021 17.8981 55.6701 17.8981C54.0381 17.8981 52.7741 18.5381 51.8781 19.8181C50.9821 21.0661 50.5341 22.7941 50.5341 25.0021C50.5341 27.2101 50.9821 28.9701 51.8781 30.2821C52.7741 31.5621 54.0381 32.2021 55.6701 32.2021C57.3021 32.2021 58.5501 31.5621 59.4141 30.2821C60.3101 28.9701 60.7581 27.2101 60.7581 25.0021ZM73.3544 6.13807L80.5064 4.98607V12.4261H89.0984V18.3781H80.5064V27.2581C80.5064 28.7621 80.7624 29.9621 81.2744 30.8581C81.8184 31.7541 82.8904 32.2021 84.4904 32.2021C85.2584 32.2021 86.0424 32.1381 86.8424 32.0101C87.6744 31.8501 88.4264 31.6421 89.0984 31.3861L90.1064 36.9541C89.2424 37.3061 88.2824 37.6101 87.2264 37.8661C86.1704 38.1221 84.8744 38.2501 83.3384 38.2501C81.3864 38.2501 79.7704 37.9941 78.4904 37.4821C77.2104 36.9381 76.1864 36.2021 75.4184 35.2741C74.6504 34.3141 74.1064 33.1621 73.7864 31.8181C73.4984 30.4741 73.3544 28.9861 73.3544 27.3541V6.13807ZM102.075 37.6741H94.9225V12.4261H102.075V37.6741ZM102.747 5.13007C102.747 6.44207 102.315 7.48207 101.451 8.25007C100.619 8.98607 99.6265 9.35407 98.4745 9.35407C97.3225 9.35407 96.3145 8.98607 95.4505 8.25007C94.6185 7.48207 94.2025 6.44207 94.2025 5.13007C94.2025 3.81807 94.6185 2.79407 95.4505 2.05807C96.3145 1.29007 97.3225 0.906071 98.4745 0.906071C99.6265 0.906071 100.619 1.29007 101.451 2.05807C102.315 2.79407 102.747 3.81807 102.747 5.13007Z" fill="#8E9AAF"/>
</svg>
