<svg width="700" height="19" viewBox="0 0 700 19" fill="none" xmlns="http://www.w3.org/2000/svg">
<path d="M0.339746 9.5L9 18.1603L17.6603 9.5L9 0.839746L0.339746 9.5ZM675.66 9.5L667 0.839746L658.34 9.5L667 18.1603L675.66 9.5ZM9 11H10V8H9V11ZM15 11H17V8H15V11ZM22 11H24V8H22V11ZM29 11H31V8H29V11ZM36 11H38V8H36V11ZM43 11H45V8H43V11ZM50 11H52V8H50V11ZM57 11H59V8H57V11ZM64 11H66V8H64V11ZM71 11H73V8H71V11ZM78 11H80V8H78V11ZM85 11H87V8H85V11ZM92 11H94V8H92V11ZM99 11H101V8H99V11ZM106 11H108V8H106V11ZM113 11H115V8H113V11ZM120 11H122V8H120V11ZM127 11H129V8H127V11ZM134 11H136V8H134V11ZM141 11H143V8H141V11ZM148 11H150V8H148V11ZM155 11H157V8H155V11ZM162 11H164V8H162V11ZM169 11H171V8H169V11ZM176 11H178V8H176V11ZM183 11H185V8H183V11ZM190 11H192V8H190V11ZM197 11H199V8H197V11ZM204 11H206V8H204V11ZM211 11H213V8H211V11ZM218 11H220V8H218V11ZM225 11H227V8H225V11ZM232 11H234V8H232V11ZM239 11H241V8H239V11ZM246 11H248V8H246V11ZM253 11H255V8H253V11ZM260 11H262V8H260V11ZM267 11H269V8H267V11ZM274 11H276V8H274V11ZM281 11H283V8H281V11ZM288 11H290V8H288V11ZM295 11H297V8H295V11ZM302 11H304V8H302V11ZM309 11H311V8H309V11ZM316 11H318V8H316V11ZM323 11H325V8H323V11ZM330 11H332V8H330V11ZM337 11H339V8H337V11ZM344 11H346V8H344V11ZM351 11H353V8H351V11ZM358 11H360V8H358V11ZM365 11H367V8H365V11ZM372 11H374V8H372V11ZM379 11H381V8H379V11ZM386 11H388V8H386V11ZM393 11H395V8H393V11ZM400 11H402V8H400V11ZM407 11H409V8H407V11ZM414 11H416V8H414V11ZM421 11H423V8H421V11ZM428 11H430V8H428V11ZM435 11H437V8H435V11ZM442 11H444V8H442V11ZM449 11H451V8H449V11ZM456 11H458V8H456V11ZM463 11H465V8H463V11ZM470 11H472V8H470V11ZM477 11H479V8H477V11ZM484 11H486V8H484V11ZM491 11H493V8H491V11ZM498 11H500V8H498V11ZM505 11H507V8H505V11ZM512 11H514V8H512V11ZM519 11H521V8H519V11ZM526 11H528V8H526V11ZM533 11H535V8H533V11ZM540 11H542V8H540V11ZM547 11H549V8H547V11ZM554 11H556V8H554V11ZM561 11H563V8H561V11ZM568 11H570V8H568V11ZM575 11H577V8H575V11ZM582 11H584V8H582V11ZM589 11H591V8H589V11ZM596 11H598V8H596V11ZM603 11H605V8H603V11ZM610 11H612V8H610V11ZM617 11H619V8H617V11ZM624 11H626V8H624V11ZM631 11H633V8H631V11ZM638 11H640V8H638V11ZM645 11H647V8H645V11ZM652 11H654V8H652V11ZM659 11H661V8H659V11ZM666 11H667V8H666V11Z" fill="#D0D0D0"/>
</svg>
