<svg width="1098" height="18" viewBox="0 0 1098 18" fill="none" xmlns="http://www.w3.org/2000/svg">
<path d="M0.339746 9L9 17.6603L17.6603 9L9 0.339746L0.339746 9ZM1097.66 9L1089 0.339746L1080.34 9L1089 17.6603L1097.66 9ZM9 10.5H10.0019V7.5H9V10.5ZM15.0111 10.5H17.0148V7.5H15.0111V10.5ZM22.0241 10.5H24.0278V7.5H22.0241V10.5ZM29.0371 10.5H31.0408V7.5H29.0371V10.5ZM36.0501 10.5H38.0538V7.5H36.0501V10.5ZM43.0631 10.5H45.0668V7.5H43.0631V10.5ZM50.0761 10.5H52.0798V7.5H50.0761V10.5ZM57.0891 10.5H59.0928V7.5H57.0891V10.5ZM64.102 10.5H66.1058V7.5H64.102V10.5ZM71.115 10.5H73.1187V7.5H71.115V10.5ZM78.128 10.5H80.1317V7.5H78.128V10.5ZM85.141 10.5H87.1447V7.5H85.141V10.5ZM92.154 10.5H94.1577V7.5H92.154V10.5ZM99.167 10.5H101.171V7.5H99.167V10.5ZM106.18 10.5H108.184V7.5H106.18V10.5ZM113.193 10.5H115.197V7.5H113.193V10.5ZM120.206 10.5H122.21V7.5H120.206V10.5ZM127.219 10.5H129.223V7.5H127.219V10.5ZM134.232 10.5H136.236V7.5H134.232V10.5ZM141.245 10.5H143.249V7.5H141.245V10.5ZM148.258 10.5H150.262V7.5H148.258V10.5ZM155.271 10.5H157.275V7.5H155.271V10.5ZM162.284 10.5H164.288V7.5H162.284V10.5ZM169.297 10.5H171.301V7.5H169.297V10.5ZM176.31 10.5H178.314V7.5H176.31V10.5ZM183.323 10.5H185.327V7.5H183.323V10.5ZM190.336 10.5H192.339V7.5H190.336V10.5ZM197.349 10.5H199.352V7.5H197.349V10.5ZM204.362 10.5H206.365V7.5H204.362V10.5ZM211.375 10.5H213.378V7.5H211.375V10.5ZM218.388 10.5H220.391V7.5H218.388V10.5ZM225.401 10.5H227.404V7.5H225.401V10.5ZM232.414 10.5H234.417V7.5H232.414V10.5ZM239.427 10.5H241.43V7.5H239.427V10.5ZM246.44 10.5H248.443V7.5H246.44V10.5ZM253.453 10.5H255.456V7.5H253.453V10.5ZM260.466 10.5H262.469V7.5H260.466V10.5ZM267.479 10.5H269.482V7.5H267.479V10.5ZM274.492 10.5H276.495V7.5H274.492V10.5ZM281.505 10.5H283.508V7.5H281.505V10.5ZM288.518 10.5H290.521V7.5H288.518V10.5ZM295.531 10.5H297.534V7.5H295.531V10.5ZM302.544 10.5H304.547V7.5H302.544V10.5ZM309.557 10.5H311.56V7.5H309.557V10.5ZM316.57 10.5H318.573V7.5H316.57V10.5ZM323.583 10.5H325.586V7.5H323.583V10.5ZM330.596 10.5H332.599V7.5H330.596V10.5ZM337.609 10.5H339.612V7.5H337.609V10.5ZM344.622 10.5H346.625V7.5H344.622V10.5ZM351.635 10.5H353.638V7.5H351.635V10.5ZM358.648 10.5H360.651V7.5H358.648V10.5ZM365.661 10.5H367.664V7.5H365.661V10.5ZM372.674 10.5H374.677V7.5H372.674V10.5ZM379.687 10.5H381.69V7.5H379.687V10.5ZM386.7 10.5H388.703V7.5H386.7V10.5ZM393.713 10.5H395.716V7.5H393.713V10.5ZM400.726 10.5H402.729V7.5H400.726V10.5ZM407.739 10.5H409.742V7.5H407.739V10.5ZM414.752 10.5H416.755V7.5H414.752V10.5ZM421.765 10.5H423.768V7.5H421.765V10.5ZM428.778 10.5H430.781V7.5H428.778V10.5ZM435.791 10.5H437.794V7.5H435.791V10.5ZM442.804 10.5H444.807V7.5H442.804V10.5ZM449.817 10.5H451.82V7.5H449.817V10.5ZM456.83 10.5H458.833V7.5H456.83V10.5ZM463.843 10.5H465.846V7.5H463.843V10.5ZM470.856 10.5H472.859V7.5H470.856V10.5ZM477.869 10.5H479.872V7.5H477.869V10.5ZM484.882 10.5H486.885V7.5H484.882V10.5ZM491.895 10.5H493.898V7.5H491.895V10.5ZM498.908 10.5H500.911V7.5H498.908V10.5ZM505.921 10.5H507.924V7.5H505.921V10.5ZM512.934 10.5H514.937V7.5H512.934V10.5ZM519.947 10.5H521.95V7.5H519.947V10.5ZM526.96 10.5H528.963V7.5H526.96V10.5ZM533.973 10.5H535.976V7.5H533.973V10.5ZM540.986 10.5H542.989V7.5H540.986V10.5ZM547.999 10.5H550.002V7.5H547.999V10.5ZM555.012 10.5H557.015V7.5H555.012V10.5ZM562.025 10.5H564.028V7.5H562.025V10.5ZM569.038 10.5H571.041V7.5H569.038V10.5ZM576.051 10.5H578.054V7.5H576.051V10.5ZM583.064 10.5H585.067V7.5H583.064V10.5ZM590.077 10.5H592.08V7.5H590.077V10.5ZM597.09 10.5H599.093V7.5H597.09V10.5ZM604.103 10.5H606.106V7.5H604.103V10.5ZM611.116 10.5H613.119V7.5H611.116V10.5ZM618.129 10.5H620.132V7.5H618.129V10.5ZM625.142 10.5H627.145V7.5H625.142V10.5ZM632.155 10.5H634.158V7.5H632.155V10.5ZM639.168 10.5H641.171V7.5H639.168V10.5ZM646.181 10.5H648.184V7.5H646.181V10.5ZM653.194 10.5H655.197V7.5H653.194V10.5ZM660.207 10.5H662.21V7.5H660.207V10.5ZM667.22 10.5H669.223V7.5H667.22V10.5ZM674.233 10.5H676.236V7.5H674.233V10.5ZM681.246 10.5H683.249V7.5H681.246V10.5ZM688.259 10.5H690.262V7.5H688.259V10.5ZM695.272 10.5H697.275V7.5H695.272V10.5ZM702.285 10.5H704.288V7.5H702.285V10.5ZM709.298 10.5H711.301V7.5H709.298V10.5ZM716.311 10.5H718.314V7.5H716.311V10.5ZM723.324 10.5H725.327V7.5H723.324V10.5ZM730.337 10.5H732.34V7.5H730.337V10.5ZM737.35 10.5H739.353V7.5H737.35V10.5ZM744.363 10.5H746.366V7.5H744.363V10.5ZM751.376 10.5H753.379V7.5H751.376V10.5ZM758.389 10.5H760.392V7.5H758.389V10.5ZM765.402 10.5H767.405V7.5H765.402V10.5ZM772.415 10.5H774.418V7.5H772.415V10.5ZM779.428 10.5H781.431V7.5H779.428V10.5ZM786.441 10.5H788.444V7.5H786.441V10.5ZM793.454 10.5H795.457V7.5H793.454V10.5ZM800.467 10.5H802.47V7.5H800.467V10.5ZM807.48 10.5H809.483V7.5H807.48V10.5ZM814.493 10.5H816.496V7.5H814.493V10.5ZM821.506 10.5H823.509V7.5H821.506V10.5ZM828.519 10.5H830.522V7.5H828.519V10.5ZM835.532 10.5H837.535V7.5H835.532V10.5ZM842.545 10.5H844.548V7.5H842.545V10.5ZM849.558 10.5H851.561V7.5H849.558V10.5ZM856.571 10.5H858.574V7.5H856.571V10.5ZM863.584 10.5H865.587V7.5H863.584V10.5ZM870.597 10.5H872.6V7.5H870.597V10.5ZM877.61 10.5H879.613V7.5H877.61V10.5ZM884.623 10.5H886.626V7.5H884.623V10.5ZM891.636 10.5H893.639V7.5H891.636V10.5ZM898.649 10.5H900.652V7.5H898.649V10.5ZM905.662 10.5H907.665V7.5H905.662V10.5ZM912.675 10.5H914.678V7.5H912.675V10.5ZM919.688 10.5H921.691V7.5H919.688V10.5ZM926.701 10.5H928.704V7.5H926.701V10.5ZM933.714 10.5H935.717V7.5H933.714V10.5ZM940.727 10.5H942.73V7.5H940.727V10.5ZM947.74 10.5H949.743V7.5H947.74V10.5ZM954.753 10.5H956.756V7.5H954.753V10.5ZM961.766 10.5H963.769V7.5H961.766V10.5ZM968.779 10.5H970.782V7.5H968.779V10.5ZM975.792 10.5H977.795V7.5H975.792V10.5ZM982.805 10.5H984.808V7.5H982.805V10.5ZM989.818 10.5H991.821V7.5H989.818V10.5ZM996.831 10.5H998.834V7.5H996.831V10.5ZM1003.84 10.5H1005.85V7.5H1003.84V10.5ZM1010.86 10.5H1012.86V7.5H1010.86V10.5ZM1017.87 10.5H1019.87V7.5H1017.87V10.5ZM1024.88 10.5H1026.89V7.5H1024.88V10.5ZM1031.9 10.5H1033.9V7.5H1031.9V10.5ZM1038.91 10.5H1040.91V7.5H1038.91V10.5ZM1045.92 10.5H1047.93V7.5H1045.92V10.5ZM1052.93 10.5H1054.94V7.5H1052.93V10.5ZM1059.95 10.5H1061.95V7.5H1059.95V10.5ZM1066.96 10.5H1068.96V7.5H1066.96V10.5ZM1073.97 10.5H1075.98V7.5H1073.97V10.5ZM1080.99 10.5H1082.99V7.5H1080.99V10.5ZM1088 10.5H1089V7.5H1088V10.5Z" fill="#D0D0D0"/>
</svg>
