<svg width="943" height="19" viewBox="0 0 943 19" fill="none" xmlns="http://www.w3.org/2000/svg">
<path d="M0.339746 9.5L9 18.1603L17.6603 9.5L9 0.839746L0.339746 9.5ZM942.66 9.5L934 0.839746L925.34 9.5L934 18.1603L942.66 9.5ZM9 11H10.0011V8H9V11ZM15.0065 11H17.0087V8H15.0065V11ZM22.0141 11H24.0162V8H22.0141V11ZM29.0216 11H31.0238V8H29.0216V11ZM36.0292 11H38.0314V8H36.0292V11ZM43.0368 11H45.039V8H43.0368V11ZM50.0444 11H52.0465V8H50.0444V11ZM57.0519 11H59.0541V8H57.0519V11ZM64.0595 11H66.0617V8H64.0595V11ZM71.0671 11H73.0693V8H71.0671V11ZM78.0747 11H80.0768V8H78.0747V11ZM85.0823 11H87.0844V8H85.0823V11ZM92.0898 11H94.092V8H92.0898V11ZM99.0974 11H101.1V8H99.0974V11ZM106.105 11H108.107V8H106.105V11ZM113.113 11H115.115V8H113.113V11ZM120.12 11H122.122V8H120.12V11ZM127.128 11H129.13V8H127.128V11ZM134.135 11H136.137V8H134.135V11ZM141.143 11H143.145V8H141.143V11ZM148.15 11H150.153V8H148.15V11ZM155.158 11H157.16V8H155.158V11ZM162.166 11H164.168V8H162.166V11ZM169.173 11H171.175V8H169.173V11ZM176.181 11H178.183V8H176.181V11ZM183.188 11H185.191V8H183.188V11ZM190.196 11H192.198V8H190.196V11ZM197.204 11H199.206V8H197.204V11ZM204.211 11H206.213V8H204.211V11ZM211.219 11H213.221V8H211.219V11ZM218.226 11H220.228V8H218.226V11ZM225.234 11H227.236V8H225.234V11ZM232.241 11H234.244V8H232.241V11ZM239.249 11H241.251V8H239.249V11ZM246.257 11H248.259V8H246.257V11ZM253.264 11H255.266V8H253.264V11ZM260.272 11H262.274V8H260.272V11ZM267.279 11H269.282V8H267.279V11ZM274.287 11H276.289V8H274.287V11ZM281.294 11H283.297V8H281.294V11ZM288.302 11H290.304V8H288.302V11ZM295.31 11H297.312V8H295.31V11ZM302.317 11H304.319V8H302.317V11ZM309.325 11H311.327V8H309.325V11ZM316.332 11H318.335V8H316.332V11ZM323.34 11H325.342V8H323.34V11ZM330.347 11H332.35V8H330.347V11ZM337.355 11H339.357V8H337.355V11ZM344.363 11H346.365V8H344.363V11ZM351.37 11H353.372V8H351.37V11ZM358.378 11H360.38V8H358.378V11ZM365.385 11H367.387V8H365.385V11ZM372.393 11H374.395V8H372.393V11ZM379.4 11H381.403V8H379.4V11ZM386.408 11H388.41V8H386.408V11ZM393.416 11H395.418V8H393.416V11ZM400.423 11H402.425V8H400.423V11ZM407.431 11H409.433V8H407.431V11ZM414.438 11H416.44V8H414.438V11ZM421.446 11H423.448V8H421.446V11ZM428.453 11H430.456V8H428.453V11ZM435.461 11H437.463V8H435.461V11ZM442.469 11H444.471V8H442.469V11ZM449.476 11H451.478V8H449.476V11ZM456.484 11H458.486V8H456.484V11ZM463.491 11H465.493V8H463.491V11ZM470.499 11H472.501V8H470.499V11ZM477.506 11H479.509V8H477.506V11ZM484.514 11H486.516V8H484.514V11ZM491.522 11H493.524V8H491.522V11ZM498.529 11H500.531V8H498.529V11ZM505.537 11H507.539V8H505.537V11ZM512.544 11H514.546V8H512.544V11ZM519.552 11H521.554V8H519.552V11ZM526.559 11H528.562V8H526.559V11ZM533.567 11H535.569V8H533.567V11ZM540.575 11H542.577V8H540.575V11ZM547.582 11H549.584V8H547.582V11ZM554.59 11H556.592V8H554.59V11ZM561.597 11H563.599V8H561.597V11ZM568.605 11H570.607V8H568.605V11ZM575.612 11H577.615V8H575.612V11ZM582.62 11H584.622V8H582.62V11ZM589.628 11H591.63V8H589.628V11ZM596.635 11H598.637V8H596.635V11ZM603.643 11H605.645V8H603.643V11ZM610.65 11H612.652V8H610.65V11ZM617.658 11H619.66V8H617.658V11ZM624.665 11H626.667V8H624.665V11ZM631.673 11H633.675V8H631.673V11ZM638.68 11H640.683V8H638.68V11ZM645.688 11H647.69V8H645.688V11ZM652.696 11H654.698V8H652.696V11ZM659.703 11H661.705V8H659.703V11ZM666.711 11H668.713V8H666.711V11ZM673.718 11H675.72V8H673.718V11ZM680.726 11H682.728V8H680.726V11ZM687.733 11H689.736V8H687.733V11ZM694.741 11H696.743V8H694.741V11ZM701.749 11H703.751V8H701.749V11ZM708.756 11H710.758V8H708.756V11ZM715.764 11H717.766V8H715.764V11ZM722.771 11H724.773V8H722.771V11ZM729.779 11H731.781V8H729.779V11ZM736.786 11H738.789V8H736.786V11ZM743.794 11H745.796V8H743.794V11ZM750.802 11H752.804V8H750.802V11ZM757.809 11H759.811V8H757.809V11ZM764.817 11H766.819V8H764.817V11ZM771.824 11H773.826V8H771.824V11ZM778.832 11H780.834V8H778.832V11ZM785.839 11H787.842V8H785.839V11ZM792.847 11H794.849V8H792.847V11ZM799.855 11H801.857V8H799.855V11ZM806.862 11H808.864V8H806.862V11ZM813.87 11H815.872V8H813.87V11ZM820.877 11H822.879V8H820.877V11ZM827.885 11H829.887V8H827.885V11ZM834.892 11H836.895V8H834.892V11ZM841.9 11H843.902V8H841.9V11ZM848.908 11H850.91V8H848.908V11ZM855.915 11H857.917V8H855.915V11ZM862.923 11H864.925V8H862.923V11ZM869.93 11H871.932V8H869.93V11ZM876.938 11H878.94V8H876.938V11ZM883.945 11H885.948V8H883.945V11ZM890.953 11H892.955V8H890.953V11ZM897.961 11H899.963V8H897.961V11ZM904.968 11H906.97V8H904.968V11ZM911.976 11H913.978V8H911.976V11ZM918.983 11H920.985V8H918.983V11ZM925.991 11H927.993V8H925.991V11ZM932.998 11H934V8H932.998V11Z" fill="#D0D0D0"/>
</svg>
